<svg xmlns="http://www.w3.org/2000/svg" width="1280" height="800" viewBox="0 0 1280 800" role="img" aria-labelledby="title desc">
  <title id="title">EnergyBuildAI Qt Dashboard simulated view</title>
  <desc id="desc">Simulated Qt Quick dashboard with BMS sidebar, KPI cards, alarm queue, and acknowledgement panel.</desc>
  <rect width="1280" height="800" fill="#e9efec"/>
  <rect width="1280" height="60" fill="#386fa8"/>
  <text x="32" y="27" fill="#ffffff" font-family="Arial, sans-serif" font-size="20" font-weight="700">ROBERT HESLAR</text>
  <text x="32" y="47" fill="#eaf2fb" font-family="Arial, sans-serif" font-size="11" font-weight="700">EMBEDDED SYSTEMS AND SOFTWARE PORTFOLIO</text>
  <rect x="1110" y="14" width="118" height="32" rx="5" fill="#f8fafc" opacity="0.95"/>
  <text x="1132" y="35" fill="#101827" font-family="Arial, sans-serif" font-size="14" font-weight="700">Dashboard</text>
  <rect x="0" y="60" width="236" height="740" fill="#101827"/>
  <rect x="24" y="88" width="46" height="31" rx="5" fill="#32d45f"/>
  <text x="34" y="108" fill="#06130a" font-family="Arial, sans-serif" font-size="12" font-weight="700">BMS</text>
  <text x="24" y="144" fill="#ffffff" font-family="Arial, sans-serif" font-size="21" font-weight="700">Operations</text>
  <line x1="16" y1="166" x2="220" y2="166" stroke="#2e3b4f"/>
  <g font-family="Arial, sans-serif" font-size="16" font-weight="700">
    <text x="30" y="208" fill="#cbd5e1">Overview</text>
    <rect x="14" y="228" width="208" height="42" rx="4" fill="#44192a"/>
    <rect x="14" y="228" width="4" height="42" fill="#dc2626"/>
    <text x="30" y="254" fill="#ffffff">Alarms</text>
    <text x="30" y="302" fill="#cbd5e1">Acknowledge</text>
    <text x="30" y="350" fill="#cbd5e1">Building</text>
    <text x="30" y="398" fill="#cbd5e1">Schedules</text>
    <text x="30" y="446" fill="#cbd5e1">Energy</text>
  </g>
  <text x="256" y="92" fill="#386fa8" font-family="Arial, sans-serif" font-size="14" font-weight="700">ENERGYBUILDAI</text>
  <text x="256" y="148" fill="#101827" font-family="Arial, sans-serif" font-size="42" font-weight="800">Alarm Acknowledge Page</text>
  <rect x="1115" y="84" width="64" height="36" rx="18" fill="#dcfce7" stroke="#bbf7d0"/>
  <text x="1134" y="107" fill="#0f7a36" font-family="Arial, sans-serif" font-size="14" font-weight="700">Live</text>
  <rect x="1188" y="84" width="72" height="36" rx="5" fill="#f8fafc" stroke="#d7dfdc"/>
  <text x="1205" y="107" fill="#101827" font-family="Arial, sans-serif" font-size="14" font-weight="700">Alarms</text>
  <g font-family="Arial, sans-serif">
    <g transform="translate(256 186)">
      <rect width="238" height="112" rx="6" fill="#f8fafc" stroke="#d7dfdc"/>
      <rect width="238" height="4" fill="#32d45f"/>
      <text x="14" y="31" fill="#5b6573" font-size="13" font-weight="700">LIVE BUILDING LOAD</text>
      <text x="14" y="68" fill="#101827" font-size="30" font-weight="800">68.0 kWh</text>
      <text x="14" y="94" fill="#5b6573" font-size="14" font-weight="700">Sampled across 5 zones</text>
    </g>
    <g transform="translate(506 186)">
      <rect width="238" height="112" rx="6" fill="#f8fafc" stroke="#d7dfdc"/>
      <rect width="238" height="4" fill="#32d45f"/>
      <text x="14" y="31" fill="#5b6573" font-size="13" font-weight="700">PEAK DEMAND</text>
      <text x="14" y="68" fill="#101827" font-size="30" font-weight="800">24.1 kWh</text>
      <text x="14" y="94" fill="#5b6573" font-size="14" font-weight="700">Tower B Floor 1</text>
    </g>
    <g transform="translate(756 186)">
      <rect width="238" height="112" rx="6" fill="#fee2e2" stroke="#dc2626"/>
      <rect width="238" height="4" fill="#dc2626"/>
      <text x="14" y="31" fill="#5b6573" font-size="13" font-weight="700">ACTIVE ALARMS</text>
      <text x="14" y="68" fill="#dc2626" font-size="30" font-weight="800">1</text>
      <text x="14" y="94" fill="#5b6573" font-size="14" font-weight="700">1 high priority dispatch</text>
    </g>
    <g transform="translate(1006 186)">
      <rect width="238" height="112" rx="6" fill="#f8fafc" stroke="#dc2626"/>
      <rect width="238" height="4" fill="#dc2626"/>
      <text x="14" y="31" fill="#5b6573" font-size="13" font-weight="700">ACKNOWLEDGED</text>
      <text x="14" y="68" fill="#dc2626" font-size="30" font-weight="800">1</text>
      <text x="14" y="94" fill="#5b6573" font-size="14" font-weight="700">Operator-reviewed events</text>
    </g>
  </g>
  <rect x="256" y="318" width="988" height="252" rx="6" fill="#f8fafc" stroke="#dc2626" stroke-width="2"/>
  <text x="274" y="350" fill="#5b6573" font-family="Arial, sans-serif" font-size="13" font-weight="800">ALARM ACKNOWLEDGE PAGE</text>
  <text x="274" y="386" fill="#101827" font-family="Arial, sans-serif" font-size="26" font-weight="800">Acknowledge Selected Alarm</text>
  <text x="274" y="418" fill="#5b6573" font-family="Arial, sans-serif" font-size="16">Operator acknowledgement records ownership for ALM-1042 before follow-up work continues.</text>
  <rect x="1112" y="340" width="104" height="32" rx="16" fill="#fee2e2" stroke="#fecaca"/>
  <text x="1138" y="361" fill="#dc2626" font-family="Arial, sans-serif" font-size="13" font-weight="700">Pending</text>
  <g font-family="Arial, sans-serif">
    <g transform="translate(274 444)">
      <rect width="292" height="82" rx="6" fill="#eef5f2" stroke="#d7dfdc"/>
      <text x="12" y="29" fill="#5b6573" font-size="12" font-weight="700">ALARM</text>
      <text x="12" y="54" fill="#101827" font-size="18" font-weight="800">ALM-1042</text>
      <text x="12" y="73" fill="#5b6573" font-size="13" font-weight="700">Demand peak | High priority</text>
    </g>
    <g transform="translate(584 444)">
      <rect width="292" height="82" rx="6" fill="#eef5f2" stroke="#d7dfdc"/>
      <text x="12" y="29" fill="#5b6573" font-size="12" font-weight="700">OWNER</text>
      <text x="12" y="54" fill="#101827" font-size="18" font-weight="800">Facilities team</text>
      <text x="12" y="73" fill="#5b6573" font-size="13" font-weight="700">4 min dispatch</text>
    </g>
    <g transform="translate(894 444)">
      <rect width="292" height="82" rx="6" fill="#eef5f2" stroke="#d7dfdc"/>
      <text x="12" y="29" fill="#5b6573" font-size="12" font-weight="700">LOCATION</text>
      <text x="12" y="54" fill="#101827" font-size="18" font-weight="800">Tower B Floor 1</text>
      <text x="12" y="73" fill="#5b6573" font-size="13" font-weight="700">Server Room / Open Office Return</text>
    </g>
  </g>
  <rect x="274" y="538" width="162" height="38" rx="5" fill="#32d45f"/>
  <text x="292" y="562" fill="#06130a" font-family="Arial, sans-serif" font-size="15" font-weight="800">Acknowledge Alarm</text>
  <rect x="456" y="538" width="112" height="38" rx="5" fill="#f8fafc" stroke="#d7dfdc"/>
  <text x="477" y="562" fill="#101827" font-family="Arial, sans-serif" font-size="15" font-weight="800">Alarm Details</text>
  <rect x="256" y="594" width="480" height="174" rx="6" fill="#f8fafc" stroke="#d7dfdc"/>
  <text x="274" y="626" fill="#5b6573" font-family="Arial, sans-serif" font-size="13" font-weight="800">ALARM QUEUE</text>
  <text x="274" y="660" fill="#101827" font-family="Arial, sans-serif" font-size="24" font-weight="800">Events And Acknowledgement</text>
  <g font-family="Arial, sans-serif" font-weight="700">
    <rect x="274" y="682" width="438" height="64" rx="6" fill="#fee2e2" stroke="#dc2626"/>
    <rect x="274" y="682" width="5" height="64" fill="#dc2626"/>
    <text x="292" y="706" fill="#dc2626" font-size="13">ALM-1042</text>
    <text x="292" y="728" fill="#dc2626" font-size="17">Tower B Floor 1</text>
    <text x="292" y="744" fill="#dc2626" font-size="13">Demand peak | Active</text>
  </g>
</svg>
